<svg width="477" height="419" viewBox="0 0 477 419" fill="none" xmlns="http://www.w3.org/2000/svg">
<path d="M431.631 327H58.6313V308H431.631V327ZM400.631 203H64.6313V184H400.631V203ZM183.326 60H380.631V79H96.6313V60H158.414V54H183.326V60Z" fill="#F3EAE6"/>
<rect x="95.6313" y="79" width="284" height="29" fill="#FAF7F7"/>
<rect x="64.6313" y="203" width="337" height="29" fill="#FAF7F7"/>
<rect x="56.6313" y="327" width="375" height="29" fill="#FAF7F7"/>
<path d="M179.631 54H159.631V49H116.839C98.2846 51.7472 86.8111 68.1032 85.9953 85.2871C85.5916 93.79 87.9134 101.65 92.6349 107.389C97.1849 112.919 104.659 117.337 116.439 118C116.528 118 116.637 118.001 116.767 118.001C117.171 118.002 117.773 118.004 118.561 118.006C120.135 118.009 122.453 118.014 125.425 118.021C131.368 118.033 139.928 118.051 150.392 118.07C171.32 118.109 199.864 118.156 230.329 118.188C291.283 118.25 359.856 118.25 390.55 118C396.073 117.955 400.586 122.396 400.631 127.919C400.676 133.441 396.235 137.955 390.712 138C359.906 138.25 291.229 138.25 230.309 138.188C199.836 138.156 171.286 138.109 150.355 138.07C139.889 138.051 131.327 138.033 125.382 138.021C122.41 138.014 120.091 138.009 118.516 138.006C117.728 138.004 117.126 138.002 116.721 138.001C116.519 138.001 116.365 138 116.263 138H116.111C116.109 137.999 116.108 137.909 116.131 128L116.108 138L115.859 137.999L115.611 137.986C98.7641 137.107 85.7381 130.485 77.1906 120.096C68.7873 109.882 65.4214 96.8973 66.0177 84.3379C67.1934 59.5797 84.2331 33.1027 114.829 29.085L115.478 29H390.631C396.154 29 400.631 33.4772 400.631 39C400.631 44.5228 396.154 49 390.631 49H179.631V54Z" fill="#8AC9FE"/>
<path d="M403.631 154.5L426.131 177L433.631 203H413.631L383.131 171.5L383.734 171H44.6313V150H403.631V154.5Z" fill="#FFD15B"/>
<path d="M54.9477 278.415L29.9604 300.49L21.6313 326H46.6313L58.6313 307.5L77.7133 295.095L77.0424 294.604H453.631V274H54.9477V278.415Z" fill="#0BB494"/>
<path d="M54.7895 384.462L28.6313 364L23.6313 326H48.6313L51.6313 352L77.7133 367.905L77.0424 368.396H453.789V395.396H54.7895V384.462Z" fill="#3EC3A4"/>
<path d="M401.631 257.578L404.631 260L426.631 241.403L436.131 203H412.631L386.058 244H42.6313V265H401.631V257.578Z" fill="#FFE177"/>
<path d="M174.131 262V238.5V208.5H126.762V238.5V261.5C126.762 264.624 126.762 265.5 126.762 269.5C136.145 276.355 141.223 276.301 150.262 269C160.597 277.074 170 276.5 174.131 269.5V262Z" fill="#FD8087"/>
<path d="M183.262 54.5L386.262 53.5M386.262 53.5C408.762 53.5 412.262 24 388.262 24H114.262C44.2621 34 41.2621 134.5 114.262 144M386.262 53.5V114M114.262 144H388.131M114.262 144H52.1312C35.1312 144 31.1312 177 53.1312 177H59.1312M388.131 144C411.631 144 412.262 114 386.262 114M388.131 144C448.131 159 465.631 249 386.631 269.5M386.262 114L116.762 114.5C82.2621 105.5 82.7621 64.5 114.262 54.5H155.262M174.131 238.5V262V269.5M174.131 238.5C226.754 238.5 378.131 238.5 378.131 238.5C418.631 234.5 416.631 179.5 378.131 177H59.1312M174.131 238.5V208.5H126.762M126.762 238.5V261.5C126.762 264.624 126.762 265.5 126.762 269.5M126.762 238.5H58.1312M126.762 238.5V208.5M126.762 269.5C136.145 276.355 141.223 276.301 150.262 269C160.597 277.074 170 276.5 174.131 269.5M126.762 269.5C108.161 269.695 79.1312 269.5 79.1312 269.5M174.131 269.5C215.527 269.5 279.131 269.5 279.131 269.5H386.631M314.631 395.5H439.631C467.131 393.5 462.131 364 439.131 363L437.131 363.003M284.631 395.5H79.1312C6.63129 391 -8.36873 282 79.1312 269.5M79.1312 269.5H52.1312C33.6312 269.5 31.1312 240.5 52.1312 238.5H58.1312M59.1312 177L58.1312 238.5M386.631 269.5H414.631H442.631C462.131 269.5 463.131 301.5 442.631 301.5H437.131M437.131 301.5C385.137 301.5 79.1312 301.5 79.1312 301.5C45.1312 305 38.1312 358.5 80.1312 363C80.1312 363 335.674 363.17 437.131 363.003M437.131 301.5V363.003M126.762 208.5H104.131" stroke="black" stroke-width="14" stroke-linecap="round"/>
</svg>
